<svg xmlns="http://www.w3.org/2000/svg" width="200.66" height="35.198" viewBox="0 0 200.66 35.198"><g transform="translate(-187.583 -104.345)"><g transform="translate(187.583 104.345)"><path d="M635.851,50.645h5.2l-2.039,27.019h8.784l2.039-27.019h5.216l.51-6.76h-19.2Z" transform="translate(-541.955 -43.175)" fill="#f94343"/><path d="M683.988,61.765a6.031,6.031,0,0,0-3.375-1.732q2.9-.272,3.983-1.628t1.38-5.3q.325-4.32-.913-6.292a5.243,5.243,0,0,0-3.4-2.451,46.921,46.921,0,0,0-8.383-.48h-6.218l-2.548,33.78h8.783l1.15-15.23q1.815,0,2.194.646a7.564,7.564,0,0,1,.175,3.359l-.847,11.225h8.158l.673-8.909a31.1,31.1,0,0,0,.156-5A4.72,4.72,0,0,0,683.988,61.765Zm-6.107-9.493-.14,1.856q-.169,2.233-.793,2.64a4.052,4.052,0,0,1-2.108.407l.567-7.511a3.1,3.1,0,0,1,2.06.5A2.671,2.671,0,0,1,677.881,52.272Z" transform="translate(-550.763 -43.175)" fill="#f94343"/><path d="M752.011,46.388a6,6,0,0,0-3.267-1.919,40.173,40.173,0,0,0-8.561-.585h-6.573l-2.548,33.78H742.14a24.142,24.142,0,0,0,4.741-.344,6.738,6.738,0,0,0,2.72-1.21,5.05,5.05,0,0,0,1.673-2.4,28.185,28.185,0,0,0,.887-6.082l.894-11.831a44.98,44.98,0,0,0,.193-6.436A5.6,5.6,0,0,0,752.011,46.388Zm-7.6,7.469-.99,13.124a11.512,11.512,0,0,1-.75,4.142q-.5.762-2.394.761l1.676-22.22a4.182,4.182,0,0,1,1.939.3,1.267,1.267,0,0,1,.6.95A17.454,17.454,0,0,1,744.416,53.857Z" transform="translate(-571.216 -43.175)" fill="#f94343"/><path d="M701.888,43.884l-7.03,33.78h9.081l.987-6.071h3.142l.013,6.071h8.977l-2.474-33.78Zm3.378,21.72q.682-4.485,2.755-14.187.034,8.449.268,14.187Z" transform="translate(-560.089 -43.175)" fill="#f94343"/><path d="M781.844,50.645l.51-6.76H767.708l-2.549,33.78h15.23l.51-6.76h-6.447l.561-7.428H780.5l.486-6.426H775.5l.483-6.405Z" transform="translate(-581.695 -43.175)" fill="#f94343"/><path d="M589.891,44.446A11.308,11.308,0,0,0,583.6,42.86a11.121,11.121,0,0,0-6.532,1.826,8,8,0,0,0-3.3,4.016,34.447,34.447,0,0,0-1.052,7.031l-.758,10.036A39.9,39.9,0,0,0,571.822,71a7.881,7.881,0,0,0,1,3.328,7.1,7.1,0,0,0,2.733,2.661,7.948,7.948,0,0,0,4.064,1.074,6.731,6.731,0,0,0,3.285-.782,6.866,6.866,0,0,0,2.442-2.347l.629,2.42H591.5l1.369-18.131H582.579l-.387,5.133h1.773l-.3,4.006a9.879,9.879,0,0,1-.583,3.171,1.409,1.409,0,0,1-1.366.814,1.041,1.041,0,0,1-1.114-.72,9.472,9.472,0,0,1-.067-2.994l1.223-16.211a10.511,10.511,0,0,1,.535-3.213,1.2,1.2,0,0,1,1.152-.625,1.018,1.018,0,0,1,1.135.73,15.07,15.07,0,0,1-.024,3.63L584.325,56h8.784l.111-1.461a19.569,19.569,0,0,0-.294-6.332A6.738,6.738,0,0,0,589.891,44.446Z" transform="translate(-522.266 -42.86)" fill="#f94343"/><path d="M544.513,77.664h15.231l.51-6.76h-6.447l.56-7.428h5.487l.486-6.426h-5.488l.484-6.405H561.2l.51-6.76H547.062Z" transform="translate(-513.884 -43.175)" fill="#f94343"/><path d="M610.306,43.884l-7.029,33.78h9.082l.986-6.071h3.142l.012,6.071h8.977L623,43.884Zm3.379,21.72q.681-4.485,2.755-14.187.033,8.449.267,14.187Z" transform="translate(-531.944 -43.175)" fill="#f94343"/><path d="M515.31,59.658l-.6-8.592q-.224-4.135-.5-7.182H502.844L500.3,77.664h7.678l1.691-22.283,1.543,22.283h5.446l4.778-22.8-1.711,22.8H527.4l2.549-33.78H518.518Z" transform="translate(-500.295 -43.175)" fill="#f94343"/></g></g></svg>