<?xml version="1.0" encoding="utf-8"?>
<!-- Generator: Adobe Illustrator 24.1.0, SVG Export Plug-In . SVG Version: 6.00 Build 0)  -->
<svg version="1.1" id="Scroll" xmlns="http://www.w3.org/2000/svg" xmlns:xlink="http://www.w3.org/1999/xlink" x="0px" y="0px"
	 viewBox="0 0 32.7 61.3" style="enable-background:new 0 0 32.7 61.3;" xml:space="preserve">
<style type="text/css">
	.st0{fill:url(#SVGID_1_);}
	.st1{fill:#FFFFFF;}
	.st2{fill:#434041;}
	.st3{fill:none;stroke:#FFFFFF;stroke-miterlimit:10;}
</style>
<g id="Mouse">
	<g>
		<g>
			<linearGradient id="SVGID_1_" gradientUnits="userSpaceOnUse" x1="7.3899" y1="11.1607" x2="25.2919" y2="11.1607">
				<stop  offset="0" style="stop-color:#CC4F38"/>
				<stop  offset="0.2537" style="stop-color:#CD5832"/>
				<stop  offset="0.5099" style="stop-color:#CF6728"/>
				<stop  offset="1" style="stop-color:#D88C28"/>
			</linearGradient>
			<path class="st0" d="M19.7,0l-3.5,0l0,0c0,0,0,0,0,0H13C9.8,0.1,7.3,2.7,7.4,5.6v7c0,2.4,1.5,7.5,4.9,8.9
				c1.3,0.5,2.7,0.8,4.1,0.8c1.4,0,2.8-0.3,4.1-0.8c3.4-1.5,4.8-6.5,4.9-9V5.6C25.3,2.7,22.8,0.1,19.7,0z M23.3,12.6
				c0,2.3-1.5,6.2-3.6,7.1c-2.1,0.9-4.5,0.9-6.6,0c-2.2-1-3.6-4.9-3.7-7.1v-7C9.4,3.7,11,2.1,13,2h2.2v4.2c0,0.6,0.4,1,1,1
				c0.6,0,1-0.4,1-1V2l2.4,0c2,0.1,3.7,1.7,3.7,3.6V12.6z"/>
		</g>
	</g>
	<path class="st1" d="M11,13.1c0.4,0.2,0.7,0.3,1.1,0.5c0.1,0,0.1,0.1,0.2,0.1c0.4,0.2,0.8,0.3,1.1,0.5c0.1,0,0.1,0.1,0.2,0.1
		c0.4,0.2,0.8,0.3,1.2,0.5c0,0,0,0,0,0c0.5,0.2,0.9,0.4,1.4,0.6c0.2,0.1,0.3,0.1,0.5,0.2c0.3,0.1,0.6,0.2,0.9,0.3
		c0.2,0.1,0.4,0.2,0.7,0.2c0.2,0.1,0.4,0.2,0.6,0.2c0.3,0.1,0.5,0.2,0.8,0.3c0.1,0,0.3,0.1,0.4,0.1c0.3,0.1,0.5,0.2,0.8,0.3
		c0.3-0.5,0.6-1.1,0.8-1.7c-0.3-0.1-0.6-0.2-0.9-0.3c-0.1,0-0.2-0.1-0.2-0.1c-0.3-0.1-0.7-0.2-1-0.4c-0.1,0-0.3-0.1-0.4-0.2
		c-0.3-0.1-0.6-0.2-0.9-0.3c-0.2-0.1-0.5-0.2-0.7-0.3c-0.2-0.1-0.4-0.2-0.6-0.2c-0.5-0.2-0.9-0.4-1.4-0.6c-0.5-0.2-0.9-0.4-1.4-0.6
		c-0.1,0-0.2-0.1-0.3-0.1c-0.4-0.2-0.7-0.3-1.1-0.5c-0.3-0.1-0.6-0.3-0.9-0.4c-0.2-0.1-0.3-0.1-0.5-0.2c-0.4-0.2-0.8-0.4-1.1-0.5
		v1.8c0,0.1,0,0.2,0,0.3C10.6,12.9,10.7,13,11,13.1C10.9,13.1,11,13.1,11,13.1z"/>
	<path class="st1" d="M32.7,17.2c0-0.1,0-0.1,0-0.2l0,0c-0.2-1.1-1.5-2.4-4.1-4.2c0,0-0.1-0.1-0.1-0.1c-0.1,0.7-0.2,1.3-0.4,1.9
		c1.3,0.9,2,1.6,2.4,2c0,0.1,0.1,0.1,0.1,0.1c0,0,0,0,0.1,0.1c0,0.1,0.1,0.1,0.1,0.1c0,0,0,0,0,0c-0.2,0-0.4,0.1-0.9,0.1
		c-0.1,0-0.2,0-0.3,0c0,0-0.1,0-0.1,0c-0.1,0-0.1,0-0.2,0c0,0-0.1,0-0.1,0c-0.1,0-0.1,0-0.2,0c-0.1,0-0.2,0-0.3,0
		c-0.1,0-0.2,0-0.3,0c-0.1,0-0.2,0-0.2,0c-0.1,0-0.1,0-0.2,0c-0.1,0-0.2,0-0.3,0c-0.1,0-0.1,0-0.2,0c-0.1,0-0.2,0-0.3-0.1
		c-0.4-0.1-0.8-0.2-1.3-0.3c-0.1,0-0.3-0.1-0.4-0.1c-0.2,0.6-0.4,1.1-0.7,1.7c0.5,0.1,0.9,0.2,1.4,0.3c0,0,0,0,0,0c0,0,0.1,0,0.1,0
		c0.2,0,0.3,0.1,0.4,0.1c0,0,0,0,0.1,0c0.2,0,0.3,0.1,0.5,0.1c0,0,0,0,0,0c0.2,0,0.3,0.1,0.5,0.1c0,0,0,0,0,0c0.2,0,0.3,0,0.4,0.1
		c0,0,0,0,0,0c0.1,0,0.3,0,0.4,0c0,0,0.1,0,0.1,0c0.1,0,0.2,0,0.3,0c0,0,0.1,0,0.1,0c0.1,0,0.2,0,0.3,0c0.1,0,0.3,0,0.4,0
		c1.5,0,2.3-0.4,2.7-1.2c0-0.1,0.1-0.1,0.1-0.2c0,0,0-0.1,0-0.1c0,0,0-0.1,0-0.1C32.7,17.4,32.7,17.3,32.7,17.2
		C32.7,17.3,32.7,17.2,32.7,17.2z"/>
	<path class="st1" d="M5.8,8.3C5.8,8.3,5.8,8.3,5.8,8.3c-0.6-0.4-1.1-0.7-1.5-1C4,7.1,3.8,6.9,3.5,6.7c0,0,0,0,0,0
		C3.4,6.6,3.4,6.6,3.3,6.5c0,0,0,0,0,0C3,6.3,2.8,6.1,2.6,5.9c0,0,0,0,0,0c0,0-0.1-0.1-0.1-0.1c0,0,0,0,0,0c0,0-0.1-0.1-0.1-0.1
		c0,0,0,0,0,0c0,0-0.1-0.1-0.1-0.1c0,0,0,0,0-0.1c0,0,0,0,0,0c0,0,0,0,0-0.1c0,0,0,0,0,0c0,0,0,0,0-0.1c0,0,0,0,0,0c0,0,0,0,0-0.1
		c0.2,0,0.4-0.1,0.9-0.1c0,0,0.1,0,0.1,0c0.5,0,1.3,0.1,2.2,0.2c0.3-0.6,0.7-1.1,1.1-1.6C4.9,3.4,3.8,3.3,2.9,3.3
		C1.7,3.3,0.9,3.5,0.5,4c0,0-0.1,0.1-0.1,0.1c0,0,0,0.1-0.1,0.1c0,0.1-0.1,0.2-0.1,0.2c0,0,0,0,0,0c0,0.1-0.1,0.2-0.1,0.2
		c0,0,0,0.1,0,0.1c0,0.1,0,0.1,0,0.2c0,0,0,0.1,0,0.1c0,0,0,0.1,0,0.1c0,0,0,0.1,0,0.1c0,0,0,0.1,0,0.1c0,0.1,0,0.1,0,0.2
		c0,0,0,0.1,0,0.1c0,0.1,0,0.1,0.1,0.2c0,0,0,0.1,0,0.1c0,0.1,0.1,0.1,0.1,0.2c0,0,0,0.1,0.1,0.1c0,0.1,0.1,0.1,0.1,0.2
		c0,0,0,0.1,0.1,0.1c0.1,0.1,0.1,0.1,0.2,0.2c0,0,0,0,0.1,0.1C1,6.9,1.1,7,1.2,7.1c0,0,0,0,0.1,0.1c0.1,0.1,0.2,0.2,0.3,0.3
		c0,0,0,0,0.1,0.1c0.1,0.1,0.2,0.2,0.3,0.3c0,0,0,0,0.1,0C2.1,7.9,2.2,8,2.3,8.1c0,0,0,0,0,0c0.1,0.1,0.3,0.2,0.4,0.3l0,0
		C3,8.6,3.1,8.7,3.3,8.8c0,0,0,0,0,0c0.2,0.1,0.3,0.2,0.5,0.4C4,9.3,4.1,9.4,4.2,9.4C4.6,9.7,5,9.9,5.4,10.2l0,0
		c0.3,0.2,0.7,0.4,1,0.6V8.6C6.2,8.5,6,8.4,5.8,8.3z"/>
	<path class="st1" d="M6.8,16.8c0,0-0.1,0-0.1,0c-0.6,0.2-1.2,0.3-1.6,0.4c-0.4,0.1-0.8,0.1-1.1,0.2c0,0,0,0-0.1,0
		c-0.3,0-0.5,0.1-0.7,0.1c-0.1,0-0.1,0-0.2,0c0,0-0.1,0-0.1,0c-0.1,0-0.2,0-0.3,0c-0.4,0-0.6,0-0.7-0.1c0,0,0,0,0,0
		c0,0,0-0.1,0.1-0.1c0,0,0,0,0-0.1c0,0,0-0.1,0.1-0.1c0,0,0-0.1,0.1-0.1c0,0,0.1-0.1,0.1-0.1c0,0,0.1-0.1,0.1-0.1
		c0.4-0.4,1-1,1.9-1.6C4,14.6,3.9,14,3.8,13.3c-2.1,1.5-3.4,2.8-3.7,3.9c0,0,0,0,0,0c0,0.1,0,0.1,0,0.2c0,0,0,0.1,0,0.1
		c0,0,0,0.1,0,0.1c0,0,0,0.1,0,0.1c0,0,0,0.1,0,0.1c0,0,0,0.1,0,0.1C0,18,0,18,0,18c0,0.1,0,0.1,0.1,0.2c0,0,0,0,0,0
		c0.3,0.7,1.1,1.1,2.5,1.1h0c0.1,0,0.2,0,0.4,0c0.1,0,0.1,0,0.2,0c0.1,0,0.1,0,0.2,0c0.1,0,0.2,0,0.2,0c0.1,0,0.1,0,0.2,0
		c0.1,0,0.2,0,0.3,0c0,0,0.1,0,0.1,0c0.1,0,0.2,0,0.4-0.1c0,0,0.1,0,0.1,0c0.1,0,0.3,0,0.4-0.1c0,0,0,0,0.1,0c0.1,0,0.3-0.1,0.5-0.1
		c0,0,0,0,0,0c0.3-0.1,0.6-0.1,0.9-0.2c0.5-0.1,1-0.2,1.5-0.4c-0.3-0.6-0.5-1.1-0.7-1.7C7.1,16.8,6.9,16.8,6.8,16.8z"/>
	<path class="st1" d="M26.8,5.2c0.9-0.2,1.7-0.3,2.3-0.4c0.1,0,0.1,0,0.2,0c0,0,0.1,0,0.1,0c0.1,0,0.2,0,0.3,0c0.4,0,0.6,0,0.7,0.1
		c0,0,0,0,0,0c0,0,0,0,0,0c0,0,0,0,0,0c0,0,0,0,0,0c0,0,0,0,0,0.1c0,0,0,0,0,0c0,0,0,0-0.1,0.1c0,0,0,0,0,0c-0.3,0.4-1,1.1-2.3,2.1
		l0,0c-0.3,0.2-0.7,0.5-1.1,0.8c-0.1,0.1-0.2,0.2-0.4,0.2c0,0,0,0,0,0v2.2c0.7-0.4,1.4-0.8,2-1.3c2.4-1.7,3.7-3,4-4.1v0
		c0.1-0.4,0-0.7-0.1-1c-0.3-0.7-1.1-1.1-2.5-1.1c-0.1,0-0.3,0-0.5,0h0l0,0c-0.9,0.1-2,0.3-3.3,0.5c0.1,0.2,0.1,0.4,0.2,0.6
		C26.4,4.4,26.6,4.8,26.8,5.2z"/>
	<path class="st2" d="M26.1,4.1c0-0.2-0.1-0.4-0.2-0.6c-0.1,0-0.2,0-0.2,0.1C25.8,3.7,26,3.9,26.1,4.1z"/>
</g>
<line id="Line_1_" class="st3" x1="16.8" y1="30.3" x2="16.8" y2="61.3"/>
</svg>
