<?xml version="1.0" encoding="utf-8"?>
<!-- Generator: Adobe Illustrator 24.1.0, SVG Export Plug-In . SVG Version: 6.00 Build 0)  -->
<svg version="1.1" id="Title" xmlns="http://www.w3.org/2000/svg" xmlns:xlink="http://www.w3.org/1999/xlink" x="0px" y="0px"
	 viewBox="0 0 544.1 114.2" style="enable-background:new 0 0 544.1 114.2;" xml:space="preserve">
<style type="text/css">
	.st0{fill:url(#SVGID_1_);}
	.st1{fill:#FFFFFF;}
	.st2{font-family:'ProximaNova-Bold';}
	.st3{font-size:49.9624px;}
</style>
<g id="Linking_Education">
	<g>
		<g>
			<linearGradient id="SVGID_1_" gradientUnits="userSpaceOnUse" x1="3.2983" y1="92.2042" x2="401.3945" y2="92.2042">
				<stop  offset="0" style="stop-color:#CC4F38"/>
				<stop  offset="0.2537" style="stop-color:#CD5832"/>
				<stop  offset="0.5099" style="stop-color:#CF6728"/>
				<stop  offset="1" style="stop-color:#D88C28"/>
			</linearGradient>
			<path class="st0" d="M100.7,70.2c-2,0-3.8,1.6-3.8,3.7c0,2.1,1.8,3.8,3.8,3.8c2.1,0,3.8-1.7,3.8-3.8
				C104.5,71.8,102.8,70.2,100.7,70.2z M155.7,83.4c-1.9-2.4-4.5-3.7-7.4-3.7c-6.1,0-10.6,4.4-10.6,12.3c0,8,4.6,12.3,10.6,12.3
				c2.9,0,5.5-1.4,7.4-3.8v2.4c0,4.7-3.6,6.1-6.6,6.1c-3,0-5.6-0.8-7.5-3l-2.8,4.6c3,2.6,6.2,3.6,10.4,3.6c5.9,0,13-2.2,13-11.4
				V80.3h-6.4V83.4z M155.7,95.9c-1.1,1.5-3.3,2.7-5.4,2.7c-3.6,0-6.1-2.5-6.1-6.6c0-4.1,2.5-6.6,6.1-6.6c2.1,0,4.4,1.1,5.4,2.7
				V95.9z M125,79.7c-3.9,0-6.9,1.9-8.4,3.7v-3.1h-6.3v24.1h6.3V88.2c1.1-1.4,3-2.8,5.5-2.8c2.7,0,4.4,1.1,4.4,4.5v14.6h6.3v-17
				C132.8,82.7,130.3,79.7,125,79.7z M97.6,104.4h6.3V80.3h-6.3V104.4z M10.4,71.1H3.3v33.3h21.2v-6.2H10.4V71.1z M29.3,104.4h6.3
				V80.3h-6.3V104.4z M94.1,80.3h-7.8l-9.1,10.7V71.1h-6.3v33.3h6.3v-6.2l2.9-3.1l6.4,9.3h7.9l-9.8-13.2L94.1,80.3z M32.4,70.2
				c-2,0-3.8,1.6-3.8,3.7c0,2.1,1.7,3.8,3.8,3.8c2.1,0,3.8-1.7,3.8-3.8C36.2,71.8,34.5,70.2,32.4,70.2z M56.7,79.7
				c-3.9,0-6.9,1.9-8.4,3.7v-3.1h-6.3v24.1h6.3V88.2c1-1.4,3-2.8,5.5-2.8c2.7,0,4.4,1.1,4.4,4.5v14.6h6.3v-17
				C64.6,82.7,62,79.7,56.7,79.7z M337.4,104.4h6.3V80.3h-6.3V104.4z M361.3,79.7c-7.9,0-12.7,5.8-12.7,12.6
				c0,6.9,4.8,12.7,12.7,12.7c8,0,12.8-5.8,12.8-12.7C374.1,85.5,369.3,79.7,361.3,79.7z M361.3,99.4c-3.9,0-6.1-3.2-6.1-7
				c0-3.7,2.2-7,6.1-7c3.9,0,6.2,3.2,6.2,7C367.5,96.2,365.2,99.4,361.3,99.4z M340.6,70.2c-2,0-3.8,1.6-3.8,3.7
				c0,2.1,1.7,3.8,3.8,3.8c2.1,0,3.8-1.7,3.8-3.8C344.4,71.8,342.7,70.2,340.6,70.2z M393.6,79.7c-3.9,0-6.9,1.9-8.4,3.7v-3.1h-6.3
				v24.1h6.3V88.2c1-1.4,3-2.8,5.5-2.8c2.7,0,4.4,1.1,4.4,4.5v14.6h6.3v-17C401.4,82.7,398.8,79.7,393.6,79.7z M330.4,99.4
				c-1.4,0-2.2-1.1-2.2-2.6V85.9h4.9v-5.5h-4.9v-6.6h-6.4v6.6h-4v5.5h4v12.6c0,4.3,2.4,6.6,6.8,6.6c2.6,0,4.3-0.7,5.3-1.5l-1.3-4.8
				C332.2,99,331.3,99.4,330.4,99.4z M181.3,104.4h23.6v-6.2h-16.5v-7.5h16.1v-6.2h-16.1v-7h16.5v-6.2h-23.6V104.4z M255.9,96.7
				c-1.1,1.4-3,2.7-5.5,2.7c-2.7,0-4.4-1.1-4.4-4.4V80.3h-6.3v17.1c0,4.7,2.5,7.6,7.8,7.6c3.9,0,6.8-1.8,8.5-3.6v3h6.3V80.3h-6.3
				V96.7z M226.9,83.4c-1.9-2.4-4.6-3.7-7.4-3.7c-6.1,0-10.7,4.8-10.7,12.7c0,8,4.6,12.6,10.7,12.6c2.9,0,5.5-1.3,7.4-3.7v3.1h6.4
				V71.1h-6.4V83.4z M226.9,96.7c-1,1.6-3.3,2.7-5.5,2.7c-3.6,0-6.1-2.8-6.1-7c0-4.2,2.5-7,6.1-7c2.1,0,4.4,1.1,5.5,2.7V96.7z
				 M303.7,79.7c-3.8,0-7.6,1.2-10.5,3.8l2.4,4.2c2-1.9,4.4-2.8,7-2.8c3.2,0,5.3,1.6,5.3,4v3.2c-1.6-1.9-4.4-2.9-7.6-2.9
				c-3.8,0-8.4,2.1-8.4,7.8c0,5.4,4.5,8,8.4,8c3.1,0,6-1.1,7.6-3.1v2.5h6.3V88.9C314.3,81.9,309.2,79.7,303.7,79.7z M307.9,98.7
				c-1.1,1.4-3,2.1-5.1,2.1c-2.5,0-4.5-1.3-4.5-3.5c0-2.3,2-3.6,4.5-3.6c2,0,4,0.7,5.1,2.1V98.7z M280,85.4c2.2,0,3.9,0.9,5.1,2.6
				l4.1-3.9c-1.6-2.2-4.6-4.3-9.5-4.3c-7.4,0-12.8,5.2-12.8,12.6c0,7.4,5.3,12.7,12.8,12.7c4.9,0,7.9-2.1,9.5-4.4l-4.1-3.8
				c-1.1,1.6-2.9,2.6-5.1,2.6c-3.8,0-6.5-2.8-6.5-7C273.5,88.2,276.2,85.4,280,85.4z"/>
		</g>
	</g>
</g>
<g>
	<text transform="matrix(1 0 0 1 0 41.6438)" class="st1 st2 st3">Experts in Dual Degrees</text>
</g>
</svg>
